<svg xmlns="http://www.w3.org/2000/svg" viewBox="0 0 128 128" width="64" height="64">
  <g fill="#10b981">
    <path d="M18.8,89.2h5.5l3.9-3.9v-5.9C23.7,81,20.2,84.6,18.8,89.2z M24.3,98.9h-5.2c1.6,4.1,4.9,7.4,9.1,8.9v-5L24.3,98.9z M42.2,98.9l-3.9,3.9v5c4.2-1.5,7.5-4.8,9.1-8.9H42.2z M38.3,79.4v5.9l3.9,3.9h5.5C46.3,84.6,42.8,81,38.3,79.4z M94.7,78.5c-8.3,0-15.1,6.8-15.1,15.1c0,8.4,6.8,15.1,15.1,15.1c8.4,0,15.1-6.8,15.1-15.1C109.9,85.3,103.1,78.5,94.7,78.5z M94.7,100.5c-3.8,0-6.9-3.1-6.9-6.9c0-3.8,3.1-6.9,6.9-6.9c3.8,0,6.9,3.1,6.9,6.9C101.6,97.4,98.5,100.5,94.7,100.5z M38.3,79.4v5.9l3.9,3.9h5.5C46.3,84.6,42.8,81,38.3,79.4z M42.2,98.9l-3.9,3.9v5c4.2-1.5,7.5-4.8,9.1-8.9H42.2z M24.3,98.9h-5.2c1.6,4.1,4.9,7.4,9.1,8.9v-5L24.3,98.9z M18.8,89.2h5.5l3.9-3.9v-5.9C23.7,81,20.2,84.6,18.8,89.2z M38.3,79.4v5.9l3.9,3.9h5.5C46.3,84.6,42.8,81,38.3,79.4z M42.2,98.9l-3.9,3.9v5c4.2-1.5,7.5-4.8,9.1-8.9H42.2z M24.3,98.9h-5.2c1.6,4.1,4.9,7.4,9.1,8.9v-5L24.3,98.9z M18.8,89.2h5.5l3.9-3.9v-5.9C23.7,81,20.2,84.6,18.8,89.2z M94.7,78.5c-8.3,0-15.1,6.8-15.1,15.1c0,8.4,6.8,15.1,15.1,15.1c8.4,0,15.1-6.8,15.1-15.1C109.9,85.3,103.1,78.5,94.7,78.5z M94.7,100.5c-3.8,0-6.9-3.1-6.9-6.9c0-3.8,3.1-6.9,6.9-6.9c3.8,0,6.9,3.1,6.9,6.9C101.6,97.4,98.5,100.5,94.7,100.5z M18.8,89.2h5.5l3.9-3.9v-5.9C23.7,81,20.2,84.6,18.8,89.2z M24.3,98.9h-5.2c1.6,4.1,4.9,7.4,9.1,8.9v-5L24.3,98.9z M42.2,98.9l-3.9,3.9v5c4.2-1.5,7.5-4.8,9.1-8.9H42.2z M38.3,79.4v5.9l3.9,3.9h5.5C46.3,84.6,42.8,81,38.3,79.4z M94.7,78.5c-8.3,0-15.1,6.8-15.1,15.1c0,8.4,6.8,15.1,15.1,15.1c8.4,0,15.1-6.8,15.1-15.1C109.9,85.3,103.1,78.5,94.7,78.5z M94.7,100.5c-3.8,0-6.9-3.1-6.9-6.9c0-3.8,3.1-6.9,6.9-6.9c3.8,0,6.9,3.1,6.9,6.9C101.6,97.4,98.5,100.5,94.7,100.5z M105,51.9H77.4v-7.1h-9.9V12.2c1.9-1.2,3.1-3.2,3.1-5.6C70.6,3,67.6,0,64,0c-3.7,0-6.6,3-6.6,6.6c0,2.3,1.2,4.4,3.1,5.6v32.6h-9.8v7.1H23c-9,0-16.3,7.3-16.3,16.3v45.2c0,8.8,7.6,14.6,16.4,14.6h81.7c8.8,0,16.4-5.8,16.4-14.6V68.2C121.3,59.2,114,51.9,105,51.9z M33.3,113.6c-11,0-20-9-20-20s9-20,20-20s20,9,20,20S44.3,113.6,33.3,113.6z M60.1,68.6c-0.9,0.8-2.1,1.4-3.4,1.4h-3.9c-2.6,0-4.8-2.1-4.8-4.7c0-1.3,0.5-2.5,1.4-3.4c0.9-0.9,2.1-1.4,3.4-1.4h3.9c2.6,0,4.7,2.1,4.7,4.8C60.2,66.6,59.6,67.8,60.1,68.6z M70.7,69.9c-2.6,0-4.8-2.1-4.8-4.7c0-1.3,0.5-2.5,1.4-3.4c0.9-0.9,2.1-1.4,3.4-1.4h3.9c2.6,0,4.7,2.1,4.7,4.8c0,1.3-0.5,2.5-1.4,3.4c-0.9,0.8-2.1,1.4-3.4,1.4H70.7z M94.7,113.6c-11,0-20-9-20-20s9-20,20-20s20,9,20,20C114.8,104.6,105.7,113.6,94.7,113.6z"/>
  </g>
</svg>
