<svg xmlns="http://www.w3.org/2000/svg" viewBox="0 0 128 128" width="64" height="64">
  <g fill="#3b82f6">
    <path d="M101.6,74.5c-5.9,0-11.3,1.9-15.6,5.2l-2.4-2.8c-6.2-7.3-6.2-18,0-25.3l2.7-3.1c4.3,3.1,9.6,5,15.3,5c14.6,0,26.4-12,26.4-26.7C128,12,116.2,0,101.6,0C87.1,0,75.2,12,75.2,26.7c0,5.3,1.5,10.2,4.1,14.4L76,44c-7.2,6.3-17.8,6.3-25,0l-2.7-2.3c2.8-4.3,4.5-9.4,4.5-14.9C52.8,12,41,0,26.4,0C11.9,0,0,12,0,26.7c0,14.7,11.9,26.7,26.4,26.7c5.5,0,10.5-1.7,14.8-4.6l2.3,2.7c6.2,7.3,6.2,18,0,25.3l-2,2.4c-4.3-3-9.5-4.8-15.1-4.8C11.9,74.5,0,86.5,0,101.3C0,116,11.9,128,26.4,128c14.6,0,26.4-12,26.4-26.7c0-5.3-1.6-10.3-4.3-14.5l2.5-2.2c7.2-6.3,17.8-6.3,25,0l3.1,2.7c-2.5,4.1-3.9,8.9-3.9,14c0,14.7,11.9,26.7,26.4,26.7c14.6,0,26.4-12,26.4-26.7C128,86.5,116.2,74.5,101.6,74.5z M101.6,4.9c11.9,0,21.6,9.8,21.6,21.9c0,12.1-9.7,21.9-21.6,21.9c-4.5,0-8.7-1.4-12.2-3.8l8.5-10c0.8,0.2,1.6,0.4,2.4,0.4c4.4,0,8-3.6,8-8.1s-3.6-8.1-8-8.1c-4.4,0-8,3.6-8,8.1c0,0.9,0.1,1.7,0.4,2.5L83,37.9c-1.9-3.3-3-7.1-3-11.1C80,14.7,89.7,4.9,101.6,4.9z M44.7,38.4l-10.3-8.9c0.2-0.8,0.4-1.6,0.4-2.5c0-4.5-3.6-8.1-8-8.1c-4.4,0-8,3.6-8,8.1s3.6,8.1,8,8.1c0.8,0,1.7-0.1,2.4-0.4L38,45.2c-3.3,2.2-7.3,3.5-11.6,3.5c-11.9,0-21.6-9.8-21.6-21.9c0-12.1,9.7-21.9,21.6-21.9C38.3,4.9,48,14.7,48,26.7C48,31,46.8,35,44.7,38.4z M48,101.3c0,12.1-9.7,21.9-21.6,21.9c-11.9,0-21.6-9.8-21.6-21.9c0-12.1,9.7-21.9,21.6-21.9c4.4,0,8.5,1.3,11.9,3.6l-9.1,10.8c-0.8-0.2-1.6-0.4-2.4-0.4c-4.4,0-8,3.6-8,8.1s3.6,8.1,8,8.1c4.4,0,8-3.6,8-8.1c0-0.9-0.1-1.7-0.4-2.5l10.5-9.1C46.9,93.2,48,97.1,48,101.3z M101.6,123.1c-11.9,0-21.6-9.8-21.6-21.9c0-3.9,1-7.6,2.8-10.8l9.9,8.6c-0.2,0.8-0.4,1.6-0.4,2.5c0,4.5,3.6,8.1,8,8.1c4.4,0,8-3.6,8-8.1s-3.6-8.1-8-8.1c-0.8,0-1.7,0.1-2.4,0.4l-8.8-10.4c3.5-2.6,7.8-4.1,12.5-4.1c11.9,0,21.6,9.8,21.6,21.9C123.2,113.3,113.5,123.1,101.6,123.1z"/>
  </g>
</svg>
